<mxfile host="Electron" agent="Mozilla/5.0 (Macintosh; Intel Mac OS X 10_15_7) AppleWebKit/537.36 (KHTML, like Gecko) draw.io/28.1.2 Chrome/138.0.7204.243 Electron/37.4.0 Safari/537.36" version="28.1.2">
  <diagram name="Page-1" id="eZcpIvof6BSVkvDU-s_3">
    <mxGraphModel dx="331" dy="266" grid="1" gridSize="10" guides="1" tooltips="1" connect="1" arrows="1" fold="1" page="1" pageScale="1" pageWidth="850" pageHeight="1100" math="0" shadow="0">
      <root>
        <mxCell id="0" />
        <mxCell id="1" parent="0" />
        <mxCell id="LppRFLeUEKFvu9Jq3s7i-1" value="Начало" style="rounded=1;whiteSpace=wrap;html=1;strokeWidth=1;fillColor=default;imageWidth=24;imageHeight=24;imageAspect=1;perimeterSpacing=0;glass=0;arcSize=12;" vertex="1" parent="1">
          <mxGeometry x="320" y="50" width="90" height="30" as="geometry" />
        </mxCell>
        <mxCell id="LppRFLeUEKFvu9Jq3s7i-2" value="" style="endArrow=none;html=1;rounded=0;entryX=0.5;entryY=1;entryDx=0;entryDy=0;" edge="1" parent="1" target="LppRFLeUEKFvu9Jq3s7i-1">
          <mxGeometry width="50" height="50" relative="1" as="geometry">
            <mxPoint x="365" y="100" as="sourcePoint" />
            <mxPoint x="420" y="160" as="targetPoint" />
          </mxGeometry>
        </mxCell>
        <mxCell id="LppRFLeUEKFvu9Jq3s7i-3" value="Ввод a,&lt;span style=&quot;background-color: transparent; color: light-dark(rgb(0, 0, 0), rgb(255, 255, 255));&quot;&gt;b&lt;/span&gt;" style="shape=parallelogram;perimeter=parallelogramPerimeter;whiteSpace=wrap;html=1;fixedSize=1;strokeWidth=1;" vertex="1" parent="1">
          <mxGeometry x="320" y="100" width="90" height="60" as="geometry" />
        </mxCell>
        <mxCell id="LppRFLeUEKFvu9Jq3s7i-5" value="&lt;font style=&quot;font-size: 11px;&quot;&gt;z1=(cos(a)-cos(b))**2-(sin(a)-sin(b))**2&lt;/font&gt;" style="whiteSpace=wrap;html=1;aspect=fixed;" vertex="1" parent="1">
          <mxGeometry x="335" y="180" width="60" height="60" as="geometry" />
        </mxCell>
        <mxCell id="LppRFLeUEKFvu9Jq3s7i-6" value="" style="endArrow=none;html=1;rounded=0;exitX=0.5;exitY=0;exitDx=0;exitDy=0;" edge="1" parent="1" source="LppRFLeUEKFvu9Jq3s7i-5" target="LppRFLeUEKFvu9Jq3s7i-3">
          <mxGeometry width="50" height="50" relative="1" as="geometry">
            <mxPoint x="370" y="150" as="sourcePoint" />
            <mxPoint x="420" y="100" as="targetPoint" />
          </mxGeometry>
        </mxCell>
        <mxCell id="LppRFLeUEKFvu9Jq3s7i-7" value="" style="endArrow=none;html=1;rounded=0;entryX=0.5;entryY=1;entryDx=0;entryDy=0;exitX=0.5;exitY=0;exitDx=0;exitDy=0;" edge="1" parent="1" source="LppRFLeUEKFvu9Jq3s7i-8" target="LppRFLeUEKFvu9Jq3s7i-5">
          <mxGeometry width="50" height="50" relative="1" as="geometry">
            <mxPoint x="367.5" y="260" as="sourcePoint" />
            <mxPoint x="362.4999999999999" y="240" as="targetPoint" />
          </mxGeometry>
        </mxCell>
        <mxCell id="LppRFLeUEKFvu9Jq3s7i-8" value="&lt;font style=&quot;font-size: 7px;&quot;&gt;z2=-4*(sin(a))**2*cos(b)&lt;/font&gt;" style="whiteSpace=wrap;html=1;aspect=fixed;" vertex="1" parent="1">
          <mxGeometry x="335" y="260" width="60" height="60" as="geometry" />
        </mxCell>
        <mxCell id="LppRFLeUEKFvu9Jq3s7i-9" value="&lt;font style=&quot;font-size: 10px;&quot;&gt;&amp;nbsp; &amp;nbsp;Вывод z1,z2 округляем до тысячных&lt;/font&gt;" style="shape=parallelogram;perimeter=parallelogramPerimeter;whiteSpace=wrap;html=1;fixedSize=1;" vertex="1" parent="1">
          <mxGeometry x="320" y="340" width="90" height="60" as="geometry" />
        </mxCell>
        <mxCell id="LppRFLeUEKFvu9Jq3s7i-10" value="" style="endArrow=none;html=1;rounded=0;entryX=0.5;entryY=0;entryDx=0;entryDy=0;exitX=0.5;exitY=1;exitDx=0;exitDy=0;" edge="1" parent="1" source="LppRFLeUEKFvu9Jq3s7i-8" target="LppRFLeUEKFvu9Jq3s7i-9">
          <mxGeometry width="50" height="50" relative="1" as="geometry">
            <mxPoint x="370" y="320" as="sourcePoint" />
            <mxPoint x="420" y="270" as="targetPoint" />
          </mxGeometry>
        </mxCell>
        <mxCell id="LppRFLeUEKFvu9Jq3s7i-12" value="Конец" style="rounded=1;whiteSpace=wrap;html=1;" vertex="1" parent="1">
          <mxGeometry x="320" y="420" width="90" height="30" as="geometry" />
        </mxCell>
        <mxCell id="LppRFLeUEKFvu9Jq3s7i-13" value="" style="endArrow=none;html=1;rounded=0;entryX=0.5;entryY=1;entryDx=0;entryDy=0;exitX=0.5;exitY=0;exitDx=0;exitDy=0;" edge="1" parent="1" source="LppRFLeUEKFvu9Jq3s7i-12" target="LppRFLeUEKFvu9Jq3s7i-9">
          <mxGeometry width="50" height="50" relative="1" as="geometry">
            <mxPoint x="370" y="390" as="sourcePoint" />
            <mxPoint x="420" y="340" as="targetPoint" />
          </mxGeometry>
        </mxCell>
      </root>
    </mxGraphModel>
  </diagram>
</mxfile>
